<svg width="24" height="30" viewBox="0 0 24 30" fill="none" xmlns="http://www.w3.org/2000/svg">
<path d="M19.3333 19.5V12.9545C19.3333 8.86364 16 5.45455 12 5.45455C8 5.45455 4.66667 8.86364 4.66667 12.9545V19.5C4.66667 19.9091 4.4 20.3182 4 20.3182L3.6 20.4545C3.06667 20.5909 2.66667 21.1364 2.66667 21.8182C2.66667 22.6364 3.2 23.1818 4 23.1818H20C20.8 23.1818 21.3333 22.6364 21.3333 21.8182C21.3333 21.1364 20.9333 20.5909 20.2667 20.4545H20C19.6 20.3182 19.3333 19.9091 19.3333 19.5ZM10.6667 25.9091C10.6667 26.7273 11.2 27.2727 12 27.2727C12.6667 27.2727 13.3333 26.7273 13.3333 25.9091H10.6667ZM4 25.9091C1.73333 25.9091 0 24.1364 0 21.8182C0 20.3182 0.8 18.9545 2 18.2727C2 17.8636 2 12.9545 2 12.9545C2 8.18182 5.06667 4.22727 9.33333 3.13636V2.72727C9.33333 1.22727 10.5333 0 12 0C13.4667 0 14.6667 1.22727 14.6667 2.72727V3.13636C18.9333 4.36364 22 8.31818 22 12.9545V18.2727C23.2 18.9545 24 20.3182 24 21.8182C24 24.1364 22.2667 25.9091 20 25.9091H16C16 28.2273 14.2667 30 12 30C9.73333 30 8 28.2273 8 25.9091H4Z" fill="white"/>
</svg>
